<?xml version="1.0" standalone="no"?>
<!DOCTYPE svg PUBLIC "-//W3C//DTD SVG 20010904//EN"
 "http://www.w3.org/TR/2001/REC-SVG-20010904/DTD/svg10.dtd">
<svg version="1.0" xmlns="http://www.w3.org/2000/svg"
 width="500.000000pt" height="500.000000pt" viewBox="0 0 500.000000 500.000000"
 preserveAspectRatio="xMidYMid meet">
<metadata>
Created by potrace 1.11, written by Peter Selinger 2001-2013
</metadata>
<g transform="translate(0.000000,500.000000) scale(0.100000,-0.100000)"
fill="#000000" stroke="none">
<path d="M2157 4654 c-1 -1 -33 -5 -72 -8 -778 -73 -1474 -588 -1778 -1316
-65 -155 -111 -309 -136 -455 -10 -57 -14 -86 -26 -200 -8 -65 -8 -297 -1
-357 3 -27 8 -69 12 -95 8 -77 15 -116 24 -153 5 -19 11 -49 14 -65 9 -52 64
-231 97 -312 140 -354 395 -688 704 -924 303 -231 690 -385 1063 -425 134 -14
503 -7 572 11 8 2 31 6 51 9 116 17 316 76 454 133 391 162 743 457 987 828
110 168 236 454 274 625 2 11 6 28 8 38 17 72 26 114 31 148 2 21 7 49 9 62 9
41 19 186 20 282 2 134 -12 285 -39 430 -41 217 -172 558 -266 692 -11 14 -19
29 -19 32 0 4 -30 48 -66 99 -315 438 -719 718 -1234 856 -42 11 -91 23 -110
26 -19 3 -60 10 -90 15 -98 17 -162 22 -323 24 -87 1 -159 1 -160 0z m353
-567 c8 -3 33 -8 55 -11 158 -20 384 -102 548 -199 305 -181 557 -476 687
-806 106 -269 134 -607 74 -900 -22 -111 -78 -272 -131 -380 -41 -83 -134
-237 -152 -251 -4 -3 -14 -17 -23 -31 -28 -44 -174 -193 -246 -252 -153 -124
-320 -218 -501 -281 -115 -40 -113 -40 -271 -66 -118 -21 -300 -27 -405 -15
-187 21 -399 82 -560 162 -180 90 -406 271 -532 428 -138 172 -270 434 -309
616 -45 213 -60 394 -43 529 4 30 10 78 14 105 17 135 76 323 144 462 36 73
143 250 160 263 3 3 24 27 46 55 245 307 634 520 1040 571 28 4 51 8 53 9 6 5
337 -2 352 -8z"/>
<path d="M2135 3963 c-275 -50 -414 -98 -591 -204 -334 -200 -578 -530 -674
-907 -10 -42 -21 -93 -24 -112 -3 -19 -8 -53 -12 -75 -9 -55 -9 -278 0 -340 4
-27 9 -66 12 -85 7 -52 50 -206 77 -275 157 -395 458 -695 851 -850 79 -31
234 -72 304 -80 26 -3 63 -8 82 -11 118 -18 345 0 493 37 274 69 498 197 697
399 161 162 280 355 349 562 56 170 75 292 75 478 -1 144 -10 224 -44 356 -83
328 -281 623 -550 820 -102 74 -105 75 -216 135 -91 49 -280 113 -399 135 -82
15 -375 27 -430 17z m447 -432 c11 -1 16 -8 13 -20 -2 -10 -6 -34 -9 -52 -3
-19 -14 -74 -25 -122 -21 -99 -21 -98 54 -112 55 -10 202 -70 253 -104 37 -24
41 -30 27 -41 -8 -7 -15 -16 -15 -20 0 -6 -96 -186 -106 -199 -2 -2 -35 13
-74 33 -193 102 -395 131 -509 73 -61 -30 -85 -65 -85 -125 0 -95 52 -133 292
-211 191 -63 272 -101 329 -158 56 -57 84 -118 91 -200 22 -274 -184 -482
-513 -519 -33 -3 -60 -7 -61 -8 0 0 -13 -66 -28 -146 l-28 -145 -91 1 c-51 1
-97 2 -103 3 -8 1 -9 12 -3 39 11 46 49 251 49 262 0 4 -30 15 -66 24 -85 22
-178 64 -263 120 -112 75 -110 65 -40 186 34 58 65 110 71 117 7 9 26 -1 71
-38 71 -58 195 -120 282 -143 179 -46 348 -8 395 89 52 108 -5 194 -165 246
-27 9 -102 34 -165 54 -156 50 -227 86 -282 143 -119 121 -120 327 -1 483 73
97 201 171 333 195 19 3 42 7 50 9 8 2 29 4 47 4 37 1 34 -7 63 158 l23 122
46 3 c25 2 64 2 86 1 22 -1 48 -2 57 -2z"/>
<path d="M2958 4633 c6 -2 18 -2 25 0 6 3 1 5 -13 5 -14 0 -19 -2 -12 -5z"/>
<path d="M3025 4618 c392 -131 660 -292 926 -558 242 -241 400 -488 520 -807
34 -91 78 -252 94 -338 29 -160 39 -271 38 -425 0 -210 -20 -365 -74 -568
-109 -412 -339 -786 -667 -1084 -231 -210 -591 -406 -887 -482 -24 -6 69 2
105 9 13 2 42 7 63 10 22 4 50 10 63 15 13 5 24 8 24 6 0 -13 317 106 425 159
119 59 311 178 381 237 104 87 238 216 309 298 247 286 446 722 490 1072 3 24
10 70 15 103 9 60 7 419 -3 485 -14 98 -20 131 -33 195 -31 141 -65 252 -119
380 -250 597 -741 1041 -1370 1239 -80 25 -267 66 -300 65 l-30 -1 30 -10z"/>
</g>
</svg>
